<svg xmlns="http://www.w3.org/2000/svg" version="1.1" xmlns:xlink="http://www.w3.org/1999/xlink" xmlns:svgjs="http://svgjs.dev/svgjs" width="2000" height="1500" viewBox="0 0 2000 1500"><rect width="2000" height="1500" fill="#ffffff"></rect><g transform="matrix(0.75,0,0,0.75,249.090909090909,278.98548387096776)"><svg viewBox="0 0 396 248" data-background-color="#ffffff" preserveAspectRatio="xMidYMid meet" height="1252" width="2000" xmlns="http://www.w3.org/2000/svg" xmlns:xlink="http://www.w3.org/1999/xlink"><g id="tight-bounds" transform="matrix(1,0,0,1,0.2400000000000091,0.4000000000000057)"><svg viewBox="0 0 395.52 247.2" height="247.2" width="395.52"><g><svg></svg></g><g><svg viewBox="0 0 395.52 247.2" height="247.2" width="395.52"><g transform="matrix(1,0,0,1,75.54432,97.73274061016949)"><svg viewBox="0 0 244.43135999999998 51.73451877966101" height="51.73451877966101" width="244.43135999999998"><g><svg viewBox="0 0 244.43135999999998 51.73451877966101" height="51.73451877966101" width="244.43135999999998"><g><svg viewBox="0 0 244.43135999999998 51.73451877966101" height="51.73451877966101" width="244.43135999999998"><g><svg viewBox="0 0 244.43135999999998 51.73451877966101" height="51.73451877966101" width="244.43135999999998"><g id="textblocktransform"><svg viewBox="0 0 244.43135999999998 51.73451877966101" height="51.73451877966101" width="244.43135999999998" id="textblock"><g><svg viewBox="0 0 244.43135999999998 51.73451877966101" height="51.73451877966101" width="244.43135999999998"><g transform="matrix(1,0,0,1,0,0)"><svg width="244.43135999999998" viewBox="3.96 -37.94 230.45 48.78" height="51.73451877966101" data-palette-color="#556970"><path d="M21.04-30.42L21.04-30.42Q20.8-30.52 20.46-30.76 20.12-31.01 19.48-31.23 18.85-31.45 17.87-31.59 16.89-31.74 15.38-31.64L15.38-31.64 15.38-36.57Q17.53-36.52 19.75-36.11 21.97-35.69 23.34-34.81L23.34-34.81Q23.05-34.18 22.66-33.42 22.27-32.67 21.92-32.01 21.58-31.35 21.34-30.91 21.09-30.47 21.04-30.42ZM4.2-26.51L4.2-26.51Q4.2-28.66 4.93-30.37 5.66-32.08 6.91-33.37 8.15-34.67 9.84-35.42 11.52-36.18 13.38-36.43L13.38-36.43 13.38-31.3Q11.82-30.76 10.79-29.42 9.77-28.08 9.77-26.71L9.77-26.71Q9.77-24.8 10.79-23.63 11.82-22.46 13.38-21.58L13.38-21.58 13.38-16.02Q11.77-16.8 10.16-17.7 8.54-18.6 7.23-19.82 5.91-21.04 5.05-22.66 4.2-24.27 4.2-26.51ZM3.96-2.39L4.98-6.59Q5.66-6.2 6.71-5.83 7.76-5.47 8.89-5.15 10.01-4.83 11.13-4.64 12.26-4.44 13.23-4.44L13.23-4.44 13.38-4.44 13.38 0.2 13.28 0.2Q12.11 0.2 10.86 0.07 9.62-0.05 8.35-0.34 7.08-0.63 5.93-1.15 4.79-1.66 3.96-2.39L3.96-2.39ZM15.38-14.89L15.38-20.61Q16.99-19.87 18.68-19.04 20.36-18.21 21.73-17.02 23.1-15.82 23.97-14.11 24.85-12.4 24.85-9.86L24.85-9.86Q24.85-8.11 24.19-6.45 23.54-4.79 22.34-3.44 21.14-2.1 19.38-1.17 17.63-0.24 15.38 0.05L15.38 0.05 15.38-4.64Q19.38-5.62 19.38-9.96L19.38-9.96Q19.38-11.67 18.26-12.79 17.14-13.92 15.38-14.89L15.38-14.89ZM30.66 0L30.66-37.94 36.57-37.94 36.57 0 30.66 0ZM51.17-24.51L51.17-24.51Q52-23.68 52.46-22.58 52.93-21.48 53.15-20.29 53.37-19.09 53.42-17.87 53.46-16.65 53.46-15.48L53.46-15.48 53.46-0.98 53.46 0 47.51 0 47.51-14.99Q47.51-16.65 47.36-18.16 47.21-19.68 46.68-20.85 46.14-22.02 45.21-22.68 44.28-23.34 42.62-23.34L42.62-23.34Q41.94-23.34 40.79-23.12 39.65-22.9 38.57-22.41L38.57-22.41 38.57-26.17Q39.89-26.86 41.43-27.34 42.97-27.83 44.43-27.83L44.43-27.83Q46.63-27.83 48.14-26.93 49.66-26.03 51.17-24.51ZM73.33-23.1L73.33-27.69Q76.02-27.54 78.22-26.39 80.41-25.24 81.9-23.36 83.39-21.48 84.22-18.99 85.05-16.5 85.05-13.67L85.05-13.67Q85.05-10.84 84.2-8.37 83.34-5.91 81.83-4.08 80.32-2.25 78.12-1.12 75.92 0 73.33 0.2L73.33 0.2 73.33-4.49Q75.78-5.03 77.31-7.57 78.85-10.11 78.85-13.67L78.85-13.67Q78.85-15.48 78.49-17.07 78.12-18.65 77.39-19.92 76.66-21.19 75.63-22.02 74.6-22.85 73.33-23.1L73.33-23.1ZM59.71-13.77L59.71-13.77Q59.71-16.6 60.54-19.04 61.37-21.48 62.91-23.32 64.45-25.15 66.6-26.27 68.75-27.39 71.33-27.64L71.33-27.64 71.33-23.1Q68.89-22.56 67.43-20.02 65.96-17.48 65.96-13.92L65.96-13.92Q65.96-12.11 66.33-10.5 66.69-8.89 67.38-7.62 68.06-6.35 69.06-5.52 70.06-4.69 71.33-4.49L71.33-4.49 71.33 0.2Q68.65 0 66.5-1.15 64.35-2.29 62.84-4.15 61.32-6.01 60.52-8.5 59.71-10.99 59.71-13.77ZM92.72-27.54L98.04-27.54 98.67-24.76 98.67 10.84 92.72 10.84 92.72-27.54ZM116.79-19.19L116.79-19.19Q117.38-16.94 117.38-14.16L117.38-14.16Q117.38-11.38 116.72-8.76 116.06-6.15 114.71-4.15 113.37-2.15 111.35-0.95 109.32 0.24 106.58 0.24L106.58 0.24Q104.88 0.24 103.34-0.15 101.8-0.54 100.68-1.17L100.68-1.17 100.68-6.25Q102.29-4.35 104.63-4.35L104.63-4.35Q106.1-4.35 107.29-5.08 108.49-5.81 109.34-7.06 110.2-8.3 110.69-10.03 111.17-11.77 111.17-13.72L111.17-13.72Q111.17-15.63 110.73-17.33 110.3-19.04 109.49-20.36 108.68-21.68 107.54-22.46 106.39-23.24 104.88-23.24L104.88-23.24Q103.61-23.24 102.56-22.73 101.51-22.22 100.68-21.29L100.68-21.29 100.68-26.46Q101.8-27.1 103.17-27.44 104.53-27.78 106-27.78L106-27.78Q107.61-27.78 109.27-27.34 110.93-26.9 112.37-25.88 113.81-24.85 114.98-23.19 116.15-21.53 116.79-19.19ZM124.4 0L124.4-35.99 130.36-35.99 130.36 0 124.4 0ZM145.4-20.21L145.4-16.21 132.36-16.21 132.36-20.21 145.4-20.21ZM132.36 0L132.36-4.44 146.91-4.44 146.91 0 132.36 0ZM132.36-35.99L146.91-35.99 146.91-31.54 132.36-31.54 132.36-35.99ZM159.41-8.3L159.41-8.3Q159.41-6.1 160.31-5.03 161.22-3.96 162.93-3.76L162.93-3.76 162.93 0.2Q162.73 0.24 162.29 0.24L162.29 0.24Q160.63 0.24 159.09-0.2 157.56-0.63 156.38-1.61 155.21-2.59 154.55-4.2 153.89-5.81 153.89-8.15L153.89-8.15Q153.89-10.4 154.85-12.04 155.8-13.67 157.29-14.72 158.78-15.77 160.68-16.28 162.59-16.8 164.54-16.8L164.54-16.8 166.69-16.8 166.69-13.33 165.61-13.33Q164.64-13.33 163.56-13.13 162.49-12.94 161.56-12.4 160.63-11.87 160.02-10.86 159.41-9.86 159.41-8.3ZM174.6-8.54L174.6-8.15Q174.6-7.76 174.65-7.01 174.69-6.25 174.84-5.47 174.99-4.69 175.3-4.05 175.62-3.42 176.16-3.22L176.16-3.22 174.6 0.05Q173.96 0.05 173.25-0.24 172.55-0.54 171.89-1.07 171.23-1.61 170.76-2.27 170.3-2.93 170.06-3.71L170.06-3.71Q169.57-2.49 168.13-1.54 166.69-0.59 164.93-0.15L164.93-0.15 164.93-3.86Q166.1-4.1 167.05-4.81 168.01-5.52 168.69-6.49L168.69-6.49 168.69-16.8Q168.69-19.19 168.44-20.61 168.2-22.02 167.61-22.68 167.03-23.34 166.17-23.51 165.32-23.68 164.15-23.68L164.15-23.68Q163.07-23.68 162.12-23.41 161.17-23.14 160.36-22.78 159.56-22.41 158.95-21.97 158.34-21.53 158.04-21.29L158.04-21.29 155.85-24.66Q156.34-25.2 157.31-25.76 158.29-26.32 159.56-26.76 160.83-27.2 162.32-27.47 163.81-27.73 165.42-27.73L165.42-27.73Q166.88-27.73 168.27-27.44 169.67-27.15 170.81-26.46 171.96-25.78 172.81-24.63 173.67-23.49 174.01-21.78L174.01-21.78Q174.35-20.07 174.47-18.33 174.6-16.6 174.6-14.89L174.6-14.89 174.6-8.54ZM183.29-19.68L183.29-19.68Q183.29-21.53 183.97-23.02 184.65-24.51 185.87-25.56 187.09-26.61 188.63-27.22 190.17-27.83 191.83-27.98L191.83-27.98 191.83-23.1Q190.56-22.85 189.85-22.07 189.15-21.29 189.15-19.87L189.15-19.87Q189.15-18.7 189.9-17.99 190.66-17.29 191.83-16.75L191.83-16.75 191.83-11.52Q191-11.77 190.15-12.08 189.29-12.4 188.46-12.79L188.46-12.79Q185.87-14.16 184.58-15.67 183.29-17.19 183.29-19.68ZM201.5-25.78L199.59-21.73Q198.28-22.41 196.79-22.75 195.3-23.1 193.83-23.19L193.83-23.19 193.83-28.03Q196.03-27.93 197.89-27.42 199.74-26.9 201.5-25.78L201.5-25.78ZM183.38-2.2L185.87-6.15Q186.85-5.47 188.19-4.88 189.54-4.3 191.59-4.3L191.59-4.3 191.83-4.3 191.83 0.24Q190.61 0.24 189.58 0.17 188.56 0.1 187.56-0.17 186.56-0.44 185.53-0.93 184.51-1.42 183.38-2.2L183.38-2.2ZM193.83-10.79L193.83-15.97Q195.3-15.48 196.81-14.89 198.32-14.31 199.57-13.43 200.82-12.55 201.62-11.25 202.43-9.96 202.43-8.01L202.43-8.01Q202.43-6.1 201.74-4.69 201.06-3.27 199.91-2.25 198.76-1.22 197.2-0.63 195.64-0.05 193.83 0.15L193.83 0.15 193.83-4.49Q195.49-4.79 196.4-5.54 197.3-6.3 197.3-7.57L197.3-7.57Q197.3-8.84 196.3-9.55 195.3-10.25 193.83-10.79L193.83-10.79ZM222.88-23.19L222.88-27.78Q225.52-27.54 227.64-26.37 229.77-25.2 231.28-23.34 232.8-21.48 233.6-19.09 234.41-16.7 234.41-14.11L234.41-14.11Q234.41-12.94 234.26-11.77L234.26-11.77 217.51-11.77 217.51-16.06 228.79-16.06Q228.79-17.33 228.38-18.51 227.96-19.68 227.16-20.68 226.35-21.68 225.28-22.36 224.2-23.05 222.88-23.19L222.88-23.19ZM222.69-4.59L222.69-4.59Q223.22-4.59 224.03-4.71 224.84-4.83 225.74-5.15 226.64-5.47 227.55-5.96 228.45-6.45 229.13-7.13L229.13-7.13 231.28-3.86Q229.67-1.86 227.52-0.83 225.37 0.2 222.05 0.2L222.05 0.2Q219.37 0.2 217.02-0.9 214.68-2 213.02-3.91 211.36-5.81 210.38-8.35 209.41-10.89 209.41-13.82L209.41-13.82Q209.41-16.6 210.31-19.09 211.21-21.58 212.78-23.46 214.34-25.34 216.41-26.51 218.49-27.69 220.88-27.83L220.88-27.83 220.88-23.14Q219.07-22.8 217.9-21.68 216.73-20.56 216.07-19.12 215.41-17.68 215.14-16.16 214.88-14.65 214.88-13.57L214.88-13.57Q214.88-11.67 215.34-10.03 215.8-8.4 216.78-7.2 217.76-6.01 219.2-5.3 220.64-4.59 222.69-4.59Z" opacity="1" transform="matrix(1,0,0,1,0,0)" fill="#000000" class="wordmark-text-0" data-fill-palette-color="primary" id="text-0"></path></svg></g></svg></g></svg></g></svg></g><g></g></svg></g></svg></g></svg></g><g><path d="M81.628 85.519A122.216 122.216 0 0 1 313.892 85.519L309.226 85.519A117.55 117.55 0 0 0 86.294 85.519L81.628 85.519M81.628 161.681A122.216 122.216 0 0 0 313.892 161.681L309.226 161.681A117.55 117.55 0 0 1 86.294 161.681L81.628 161.681" fill="#000000" stroke="transparent" data-fill-palette-color="tertiary"></path></g></svg></g><defs></defs></svg><rect width="395.52" height="247.2" fill="none" stroke="none" visibility="hidden"></rect></g></svg></g></svg>